HIERARCHY
ROOT Hips
{
  OFFSET -102.467 93.6631 130.069
  CHANNELS 6 Xposition Yposition Zposition Zrotation Xrotation Yrotation
  JOINT LeftUpLeg
  {
    OFFSET 8.64259 1.95398 -2.38835
    CHANNELS 3 Zrotation Xrotation Yrotation
    JOINT LeftLeg
    {
      OFFSET 43.7702 0 0
      CHANNELS 3 Zrotation Xrotation Yrotation
      JOINT LeftFoot
      {
        OFFSET 40.6238 0 0
        CHANNELS 3 Zrotation Xrotation Yrotation
        JOINT LeftToeBase
        {
          OFFSET 12.7242 0 0
          CHANNELS 3 Zrotation Xrotation Yrotation
          End Site
          {
            OFFSET 0 0 0
          }
        }
      }
    }
  }
  JOINT RightUpLeg
  {
    OFFSET -8.2249 1.95398 -2.59336
    CHANNELS 3 Zrotation Xrotation Yrotation
    JOINT RightLeg
    {
      OFFSET 43.5653 0 0
      CHANNELS 3 Zrotation Xrotation Yrotation
      JOINT RightFoot
      {
        OFFSET 40.6238 0 0
        CHANNELS 3 Zrotation Xrotation Yrotation
        JOINT RightToeBase
        {
          OFFSET 12.7242 0 0
          CHANNELS 3 Zrotation Xrotation Yrotation
          End Site
          {
            OFFSET 0 0 0
          }
        }
      }
    }
  }
  JOINT Spine
  {
    OFFSET 0.165834 0.87714 6.61349
    CHANNELS 3 Zrotation Xrotation Yrotation
    JOINT Spine1
    {
      OFFSET 7.38963 1.71661e-005 0
      CHANNELS 3 Zrotation Xrotation Yrotation
      JOINT Spine2
      {
        OFFSET 11.9445 1.14441e-005 0
        CHANNELS 3 Zrotation Xrotation Yrotation
        JOINT Spine3
        {
          OFFSET 14.7254 4.19617e-005 0
          CHANNELS 3 Zrotation Xrotation Yrotation
          JOINT Spine4
          {
            OFFSET 10.9679 0 0
            CHANNELS 3 Zrotation Xrotation Yrotation
            JOINT RightShoulder
            {
              OFFSET 2.46616 -1.6653 3.69651
              CHANNELS 3 Zrotation Xrotation Yrotation
              JOINT RightArm
              {
                OFFSET 13.0012 0 0
                CHANNELS 3 Zrotation Xrotation Yrotation
                JOINT RightForeArm
                {
                  OFFSET 28.7848 1.52588e-005 0
                  CHANNELS 3 Zrotation Xrotation Yrotation
                  JOINT RightHand
                  {
                    OFFSET 26.5688 1.52588e-005 0
                    CHANNELS 3 Zrotation Xrotation Yrotation
                    End Site
                    {
                      OFFSET 0 0 0
                    }
                  }
                }
              }
            }
            JOINT LeftShoulder
            {
              OFFSET 2.38034 -1.29275 -3.7523
              CHANNELS 3 Zrotation Xrotation Yrotation
              JOINT LeftArm
              {
                OFFSET 16.3182 6.10351e-005 0
                CHANNELS 3 Zrotation Xrotation Yrotation
                JOINT LeftForeArm
                {
                  OFFSET 27.0901 0 0
                  CHANNELS 3 Zrotation Xrotation Yrotation
                  JOINT LeftHand
                  {
                    OFFSET 24.5451 1.52588e-005 0
                    CHANNELS 3 Zrotation Xrotation Yrotation
                    End Site
                    {
                      OFFSET 0 0 0
                    }
                  }
                }
              }
            }
            JOINT Neck
            {
              OFFSET 5.0226 -0.0266342 0
              CHANNELS 3 Zrotation Xrotation Yrotation
              JOINT Head
              {
                OFFSET 6.69363 2.86102e-005 0
                CHANNELS 3 Zrotation Xrotation Yrotation
                End Site
                {
                  OFFSET 0 0 0
                }
              }
            }
          }
        }
      }
    }
  }
}
MOTION
Frames:	14
Frame Time:	0.0416667
265.026 75.8103 267.872 -51.7726 52.9543 -69.8006 -157.42 6.7413 139.904 -63.6509 -70.0501 -34.8584 1.75235 -35.2731 -68.3909 -97.5721 26.5298 -2.22081 -174.848 17.6744 126.428 105.629 80.1296 -161.945 31.4026 38.1967 149.577 -5.80301 8.12546 -0.663649 2.04418 11.9975 -94.1885 2.89047 2.43589 -8.15758 -8.80437 2.07578 -8.25595 -31.1951 4.76929 -7.05754 -11.1824 4.76931 -7.05753 103.662 -12.2529 -77.8016 63.8724 -27.7298 -21.0128 -170.706 9.83139 -65.7224 33.7497 -6.65636 -26.3033 152.152 -33.1022 -55.321 -8.88674 24.6671 -164.948 2.46981 -89.2283 -0.199272 -3.29823 -4.59412 152.41 23.9207 -2.2731 9.93731 22.4802 -8.48527 -11.9969 
265.575 75.8084 268.407 -51.1662 52.8223 -69.565 -158.4 8.82663 140.906 -58.946 -65.3592 -28.3669 4.44642 -36.7431 -68.8873 -93.2274 31.7089 -6.97722 -174.18 17.0424 126.811 108.206 79.7177 -163.456 29.7372 36.1448 149.089 -6.32459 8.1039 0.246377 2.11356 11.9437 -94.3036 2.99965 2.52544 -8.38683 -8.69652 2.15525 -8.48883 -31.0796 4.92313 -7.25007 -11.0669 4.92312 -7.25007 103.81 -11.9368 -77.3408 63.986 -27.854 -21.0933 -169.351 10.3267 -65.9946 34.2799 -6.6419 -25.9237 152.184 -32.9127 -55.3734 -8.87451 24.1181 -164.77 -177.171 -89.7551 -179.372 -3.06568 -3.56406 153.016 23.8445 -2.3766 10.1406 22.6372 -8.65296 -11.9535 
267.179 75.8057 269.966 -49.3911 52.4298 -68.8869 -161.727 15.016 144.202 -52.5823 -45.8074 -17.5968 21.554 -41.3962 -62.4877 -65.1488 42.1094 -30.1692 -172.188 15.2381 127.943 115.733 78.2769 -167.512 25.3831 30.2445 147.002 -8.01777 8.03782 2.86408 2.31453 11.7781 -94.6378 3.33561 2.78256 -9.05582 -8.36466 2.38301 -9.16821 -30.724 5.36785 -7.81351 -10.7114 5.36785 -7.81354 104.222 -11.0092 -76.0143 64.3245 -28.1935 -21.2871 -165.256 11.78 -66.8696 35.8801 -6.53785 -24.66 152.256 -32.4073 -55.5205 -8.82386 22.4588 -164.244 -179.086 -87.9471 -179.925 -2.64285 -1.60463 154.664 23.5969 -2.69116 10.7357 23.0915 -9.14927 -11.8241 
269.794 75.81 272.502 -46.4963 51.7699 -67.814 -167.194 24.7173 149.889 -49.4287 0.705209 -14.6858 67.4303 -26.6347 -20.8993 23.1219 -7.72669 -83.0691 -168.694 12.3484 129.792 128.025 74.9423 -172.835 19.7388 20.9288 141.906 -11.1198 7.89995 6.75457 2.63673 11.4804 -95.1762 3.93928 3.18703 -10.144 -7.7683 2.7399 -10.2725 -30.0851 6.07758 -8.73501 -10.0725 6.07759 -8.73503 104.834 -9.4669 -73.9028 64.925 -28.6681 -21.4583 -158.132 14.1401 -68.5696 38.5965 -6.11074 -22.0522 152.32 -31.7314 -55.7382 -8.69862 19.5807 -163.337 -1.37871 -88.6267 -0.111984 -3.01194 -4.13511 157.03 23.1038 -3.25726 11.7144 23.8294 -9.98938 -11.5917 
273.429 75.8483 275.964 -42.5483 50.8225 -66.4007 -171.793 33.3777 158.691 -36.2156 40.2814 -28.6921 67.7443 7.61276 7.6562 91.515 -4.87528 4.98768 -162.755 7.89255 132.278 146.119 69.7047 -177.249 14.8239 10.0622 131.558 -15.4636 7.66955 10.8882 3.06745 11.0137 -95.9013 4.88653 3.7095 -11.6321 -6.83243 3.1976 -11.7812 -29.0824 7.01776 -10.0065 -9.06977 7.01776 -10.0065 105.555 -7.24062 -71.0935 65.9017 -29.1413 -21.3592 -147.556 17.2037 -71.4843 42.2602 -4.8511 -17.3336 152.307 -31.1083 -55.9822 -8.44483 15.292 -161.924 -4.068 -55.5844 -0.0108783 -8.18451 -32.9521 156.105 22.2139 -4.17455 13.0757 24.8613 -11.2256 -11.2125 
278.117 76.0066 280.325 -37.6732 49.5608 -64.7136 -179.428 42.2078 169.615 -17.0916 55.6565 -48.6821 59.3747 22.1175 20.2161 86.8242 11.8125 30.3345 -150.889 -0.706474 135.382 179.119 60.5714 179.942 13.4592 -2.51855 112.602 -20.2809 7.45922 14.0188 3.58663 10.3278 -96.7847 6.27758 4.30405 -13.4903 -5.45782 3.7118 -13.6621 -27.6092 8.13424 -11.6153 -7.5965 8.13424 -11.6153 106.248 -4.1491 -67.7002 67.4657 -29.4069 -20.6157 -133.562 20.3606 -75.9612 46.0388 -2.09276 -9.87864 152.14 -30.8265 -56.1878 -7.98038 9.50272 -159.721 -10.0767 25.5732 -0.0166714 -109.139 -65.5434 46.3333 20.7054 -5.6085 14.8093 26.222 -12.9431 -10.6203 
283.858 76.3991 285.567 -32.0741 47.9564 -62.8377 165.069 51.6802 -176.868 -2.86319 65.612 -63.2655 58.9898 30.3947 25.9415 73.298 15.9281 43.658 -150.142 3.56362 139.839 177.431 57.7158 179.951 5.49714 -3.03666 106.284 -24.6143 7.50023 15.4117 4.16627 9.33381 -97.7842 8.28808 4.90185 -15.6705 -3.47007 4.21629 -15.8641 -25.4813 9.34504 -13.5386 -5.46871 9.34505 -13.5386 106.673 0.14631 -63.9921 70.0671 -28.9669 -18.4231 -117.504 22.6389 -81.6928 48.4305 2.28558 -0.0229126 151.517 -31.4723 -56.3115 -7.21868 2.63466 -156.011 -15.8911 58.8532 -0.0456812 -97.4259 -42.6397 35.4878 18.0608 -7.92494 16.7654 28.0288 -15.302 -9.68244 
290.588 77.1982 291.622 -25.994 45.9785 -60.9001 139.276 58.0338 -157.371 13.9012 74.399 -79.3508 62.2843 35.661 28.1862 59.7843 14.9499 52.3296 -149.848 8.15787 144.184 177.728 54.6209 179.861 -0.84727 -2.42539 100.055 -27.83 7.92485 15.141 4.72964 8.12204 -98.8206 10.7333 5.37112 -18.0271 -1.05383 4.58599 -18.236 -22.8792 10.4794 -15.6784 -2.86653 10.4794 -15.6784 106.647 5.90324 -59.8207 73.4455 -28.292 -15.5742 -101.856 23.3614 -87.6129 48.4937 7.19439 10.6357 151.193 -32.1392 -56.2611 -6.16304 -3.72417 -151.261 -18.8765 56.2788 -0.050322 -79.9573 -37.4976 41.339 15.1312 -10.7262 19.1302 29.9732 -18.075 -8.64576 
298.729 77.5971 298.781 -19.6036 43.5846 -59.103 107.058 57.0809 -134.149 42.428 78.7388 -108.109 65.0394 38.2562 28.2077 49.3358 12.4519 57.6111 -150.595 13.2771 148.259 177.956 51.7562 179.786 -6.22033 -0.787838 95.2746 -29.8032 8.6482 13.7705 5.70048 6.469 -99.7278 14.142 6.55855 -20.3984 2.3244 5.67399 -20.6516 -19.3309 12.2985 -17.6306 0.681747 12.2985 -17.6307 106.81 12.1446 -50.9495 76.5669 -27.491 -12.56 -88.6033 22.9333 -92.5217 46.8241 11.2711 20.2822 148.543 -30.1696 -58.5179 -6.06531 0.0810685 -143.363 -20.3939 55.1129 -0.0524838 -75.7916 -34.7693 41.0913 13.3604 -15.9368 20.6737 32.211 -22.4795 -6.05801 
307.817 77.848 306.742 -12.9506 40.7306 -57.7034 81.4247 50.9814 -121.684 73.3503 81.9184 -136.984 68.864 36.6566 25.9715 42.3457 10.1927 60.8345 -152.462 18.634 151.901 178.128 49.082 179.723 -10.8399 1.34507 91.9174 -30.7286 9.48786 11.8768 6.40743 4.67129 -100.383 17.8401 7.21773 -22.3942 5.99276 6.25096 -22.6694 -15.4812 13.4989 -19.3836 4.53145 13.4989 -19.3836 105.297 19.6345 -43.5343 80.3507 -25.8247 -8.6284 -78.1778 21.6823 -95.9844 44.5269 14.0515 27.9988 146.917 -28.6789 -59.9363 -6.3662 2.06549 -135.619 -20.8031 51.3803 -0.370342 -75.7438 -33.1509 39.0927 11.1087 -20.7212 22.2337 34.434 -26.4483 -3.90519 
317.366 78.2422 315.177 -6.11182 37.4504 -56.889 64.3378 45.5188 -121.961 159.991 85.4261 143.637 75.2263 30.7274 21.803 38.0157 8.61673 62.9982 -155.427 23.9938 154.968 178.244 46.5596 179.67 -14.8344 3.5331 89.3341 -30.9059 10.2901 9.86951 7.30257 2.02132 -100.166 23.2485 8.45585 -23.0785 11.3951 7.46041 -23.4026 -10.0899 14.8794 -19.689 9.92277 14.8793 -19.689 102.838 26.5465 -34.98 84.4711 -19.3033 -0.179828 -70.0156 20.6338 -98.2186 42.3772 15.7713 33.7192 135.977 -28.3519 -66.0712 -11.4659 22.1466 -120.705 -21.86 56.066 -0.949903 -76.4476 -32.0148 37.1666 7.40977 -29.167 17.6922 38.4155 -31.4856 1.01301 
327.111 78.5715 323.902 0.562274 33.9925 -56.5944 55.1363 43.2019 -129.183 -133.085 79.8754 91.7327 80.7375 20.1763 16.2411 35.4042 7.63075 64.6318 -158.952 28.9921 157.335 178.333 44.2463 179.633 -18.3678 5.79081 87.6216 -30.6191 10.9722 7.98121 8.41742 -0.972432 -99.0072 29.7214 10.3341 -22.6304 17.8876 9.35516 -23.034 -3.81595 16.5506 -18.6874 16.1967 16.5506 -18.6874 96.1202 37.3575 -25.9577 88.5295 -6.70657 13.5686 -63.2917 19.6569 -99.78 40.5721 16.7795 37.828 119.516 -27.1846 -74.5647 -33.5041 37.3106 -85.259 -24.988 63.3398 0.149538 -77.279 -31.1278 35.4959 1.35254 -40.0835 9.61524 44.4676 -37.4947 8.54678 
336.734 78.6431 332.647 6.5568 30.748 -56.5384 60.6112 46.8942 -138.745 -51.6323 86.5628 45.3874 76.4294 0.0618343 6.64365 33.8247 7.0391 65.9436 -162.312 33.332 159.028 178.407 42.2203 179.614 -21.5451 7.74771 86.5717 -30.0751 11.5149 6.30339 8.70049 -2.53272 -98.41 32.9748 10.7441 -22.2861 21.1497 9.77878 -22.7081 -0.632613 16.8449 -18.225 19.3801 16.8449 -18.225 88.2417 46.8236 -21.2064 90.9279 -0.710042 20.6007 -58.0139 17.709 -100.451 39.0337 17.296 40.7175 117.675 -25.3508 -75.6894 -37.4862 37.3337 -75.1703 -23.5382 61.6014 -2.54712 -78.5809 -30.3557 33.6978 -0.653747 -43.3786 9.23326 46.7412 -39.9706 10.3058 
345.911 78.3603 341.105 11.5801 27.9603 -56.4961 52.9089 39.5943 -141.405 -21.9836 82.3089 17.1545 73.9199 -2.61969 2.57284 32.86 6.69062 67.0083 -165.06 36.8935 160.175 178.474 40.5134 179.612 -24.4074 9.3726 85.9649 -29.402 11.9308 4.84848 8.88429 -3.67879 -97.7851 35.3732 11.1154 -21.6826 23.5611 10.1743 -22.1226 1.67467 17.0274 -17.5194 21.6873 17.0274 -17.5194 80.055 54.2413 -16.5247 92.072 4.21441 26.3501 -53.7432 15.6852 -100.451 37.7713 17.5074 42.6937 117.074 -23.6511 -76.1663 -39.0695 36.6458 -68.8215 -18.8208 60.701 -8.96207 -79.6397 -29.6854 32.2233 -2.10532 -45.3317 9.03878 48.2489 -41.611 10.9325 
